<?xml version="1.0" encoding="utf-8"?>
<!-- Generator: Adobe Illustrator 17.1.0, SVG Export Plug-In . SVG Version: 6.00 Build 0)  -->
<!DOCTYPE svg PUBLIC "-//W3C//DTD SVG 1.1//EN" "http://www.w3.org/Graphics/SVG/1.1/DTD/svg11.dtd">
<svg version="1.1" id="Layer_1" xmlns="http://www.w3.org/2000/svg" xmlns:xlink="http://www.w3.org/1999/xlink" x="0px" y="0px"
	 viewBox="0 0 18.9 11" enable-background="new 0 0 18.9 11" xml:space="preserve">
<path fill="#FFFFFF" d="M18.7,1.1l-0.9-0.9C17.6,0.1,17.5,0,17.3,0c-0.2,0-0.3,0.1-0.4,0.2L9.4,7.6L2,0.2C1.9,0.1,1.7,0,1.6,0
	S1.3,0.1,1.1,0.2L0.2,1.1C0.1,1.3,0,1.4,0,1.6S0.1,1.9,0.2,2L9,10.8C9.1,11,9.3,11,9.4,11c0.2,0,0.3-0.1,0.4-0.2L18.7,2
	c0.1-0.1,0.2-0.3,0.2-0.4C18.9,1.4,18.8,1.3,18.7,1.1z"/>
</svg>
